<mxfile host="65bd71144e">
    <diagram id="yxhIGMW8OohsdPnCvQMu" name="Page-1">
        <mxGraphModel dx="1581" dy="324" grid="1" gridSize="10" guides="0" tooltips="1" connect="0" arrows="0" fold="1" page="1" pageScale="1" pageWidth="1100" pageHeight="850" math="1" shadow="0">
            <root>
                <mxCell id="0"/>
                <mxCell id="1" parent="0"/>
                <mxCell id="57" value="&lt;div style=&quot;text-align: left;&quot;&gt;&lt;font face=&quot;Helvetica Neue&quot;&gt;&lt;span style=&quot;font-size: 13px;&quot;&gt;&lt;br&gt;&lt;/span&gt;&lt;/font&gt;&lt;/div&gt;" style="whiteSpace=wrap;html=1;fontFamily=Helvetica;fontSize=12;labelBackgroundColor=none;fillColor=none;dashed=1;" parent="1" vertex="1">
                    <mxGeometry x="-890" y="350" width="530" height="520" as="geometry"/>
                </mxCell>
                <mxCell id="78" value="" style="rounded=0;whiteSpace=wrap;html=1;strokeColor=default;fillColor=none;" parent="1" vertex="1">
                    <mxGeometry x="-820" y="740" width="370" height="100" as="geometry"/>
                </mxCell>
                <mxCell id="3" value="1. Policy formulation" style="text;html=1;align=center;verticalAlign=middle;whiteSpace=wrap;rounded=1;strokeColor=default;spacingLeft=2;spacingRight=2;fillColor=default;strokeWidth=2;arcSize=12;" parent="1" vertex="1">
                    <mxGeometry x="190" y="120" width="140" height="70" as="geometry"/>
                </mxCell>
                <mxCell id="4" value="2. Spatial preference formulation&amp;nbsp;" style="text;html=1;align=center;verticalAlign=middle;whiteSpace=wrap;rounded=1;strokeColor=default;spacingLeft=2;spacingRight=2;fillColor=default;strokeWidth=2;arcSize=12;" parent="1" vertex="1">
                    <mxGeometry x="190" y="200" width="140" height="70" as="geometry"/>
                </mxCell>
                <mxCell id="5" value="Define Search Space" style="text;html=1;align=center;verticalAlign=middle;whiteSpace=wrap;rounded=0;strokeColor=none;spacingLeft=2;spacingRight=2;fontStyle=1" parent="1" vertex="1">
                    <mxGeometry x="10" y="160" width="140" height="70" as="geometry"/>
                </mxCell>
                <mxCell id="26" style="edgeStyle=orthogonalEdgeStyle;html=1;strokeColor=#525252;strokeWidth=1;endArrow=blockThin;endFill=1;rounded=1;" parent="1" source="3" target="10" edge="1">
                    <mxGeometry relative="1" as="geometry">
                        <mxPoint x="559.9999999999998" y="155" as="sourcePoint"/>
                        <Array as="points">
                            <mxPoint x="360" y="155"/>
                            <mxPoint x="360" y="195"/>
                        </Array>
                    </mxGeometry>
                </mxCell>
                <mxCell id="27" style="edgeStyle=orthogonalEdgeStyle;html=1;strokeColor=#525252;strokeWidth=1;endArrow=blockThin;endFill=1;rounded=1;" parent="1" source="4" target="10" edge="1">
                    <mxGeometry relative="1" as="geometry">
                        <mxPoint x="559.9999999999998" y="235" as="sourcePoint"/>
                        <Array as="points">
                            <mxPoint x="360" y="235"/>
                            <mxPoint x="360" y="195"/>
                        </Array>
                    </mxGeometry>
                </mxCell>
                <mxCell id="28" style="edgeStyle=orthogonalEdgeStyle;rounded=0;html=1;strokeColor=#525252;strokeWidth=1;endArrow=blockThin;endFill=1;elbow=vertical;" parent="1" source="8" target="11" edge="1">
                    <mxGeometry relative="1" as="geometry"/>
                </mxCell>
                <mxCell id="8" value="3. Spatial optimization" style="text;html=1;align=center;verticalAlign=middle;whiteSpace=wrap;rounded=1;strokeColor=default;spacingLeft=2;spacingRight=2;fillColor=default;strokeWidth=2;arcSize=12;" parent="1" vertex="1">
                    <mxGeometry x="400" y="290" width="140" height="70" as="geometry"/>
                </mxCell>
                <mxCell id="37" style="edgeStyle=none;rounded=1;html=1;endArrow=blockThin;endFill=1;" parent="1" source="10" target="36" edge="1">
                    <mxGeometry relative="1" as="geometry"/>
                </mxCell>
                <mxCell id="10" value="Conditional statement" style="text;html=1;align=center;verticalAlign=middle;whiteSpace=wrap;rounded=1;strokeColor=default;spacingLeft=2;spacingRight=2;fillColor=default;strokeWidth=2;arcSize=12;" parent="1" vertex="1">
                    <mxGeometry x="400" y="160" width="140" height="70" as="geometry"/>
                </mxCell>
                <mxCell id="11" value="What are the implications of the policy? (Scoring)" style="text;html=1;align=center;verticalAlign=middle;whiteSpace=wrap;rounded=1;strokeColor=default;spacingLeft=2;spacingRight=2;fillColor=default;strokeWidth=2;arcSize=12;" parent="1" vertex="1">
                    <mxGeometry x="590" y="290" width="180" height="70" as="geometry"/>
                </mxCell>
                <mxCell id="16" value="" style="endArrow=none;html=1;strokeWidth=4;strokeColor=#525252;" parent="1" edge="1">
                    <mxGeometry width="50" height="50" relative="1" as="geometry">
                        <mxPoint x="160" y="270" as="sourcePoint"/>
                        <mxPoint x="160" y="120" as="targetPoint"/>
                    </mxGeometry>
                </mxCell>
                <mxCell id="17" value="" style="endArrow=none;html=1;strokeWidth=4;strokeColor=#525252;" parent="1" edge="1">
                    <mxGeometry width="50" height="50" relative="1" as="geometry">
                        <mxPoint x="190" y="100" as="sourcePoint"/>
                        <mxPoint x="330" y="100" as="targetPoint"/>
                    </mxGeometry>
                </mxCell>
                <mxCell id="18" value="User Action" style="text;html=1;align=center;verticalAlign=middle;whiteSpace=wrap;rounded=0;strokeColor=none;spacingLeft=2;spacingRight=2;fontStyle=1" parent="1" vertex="1">
                    <mxGeometry x="190" y="80" width="140" height="20" as="geometry"/>
                </mxCell>
                <mxCell id="29" value="" style="endArrow=none;html=1;strokeWidth=4;strokeColor=#525252;" parent="1" edge="1">
                    <mxGeometry width="50" height="50" relative="1" as="geometry">
                        <mxPoint x="399.9999999999998" y="100" as="sourcePoint"/>
                        <mxPoint x="770" y="100" as="targetPoint"/>
                    </mxGeometry>
                </mxCell>
                <mxCell id="30" value="MCDA" style="text;html=1;align=center;verticalAlign=middle;whiteSpace=wrap;rounded=0;strokeColor=none;spacingLeft=2;spacingRight=2;fontStyle=1" parent="1" vertex="1">
                    <mxGeometry x="440" y="80" width="280" height="20" as="geometry"/>
                </mxCell>
                <mxCell id="40" style="edgeStyle=none;rounded=1;html=1;endArrow=blockThin;endFill=1;" parent="1" source="31" target="8" edge="1">
                    <mxGeometry relative="1" as="geometry">
                        <Array as="points">
                            <mxPoint x="725" y="260"/>
                            <mxPoint x="470" y="260"/>
                        </Array>
                    </mxGeometry>
                </mxCell>
                <mxCell id="31" value="&lt;span style=&quot;color: rgb(0, 0, 0); font-family: Helvetica; font-size: 12px; font-style: normal; font-variant-ligatures: normal; font-variant-caps: normal; font-weight: 400; letter-spacing: normal; orphans: 2; text-align: center; text-indent: 0px; text-transform: none; widows: 2; word-spacing: 0px; -webkit-text-stroke-width: 0px; background-color: rgb(255, 255, 255); text-decoration-thickness: initial; text-decoration-style: initial; text-decoration-color: initial; float: none; display: inline !important;&quot;&gt;Suitability &lt;br&gt;map&lt;/span&gt;" style="shape=parallelogram;html=1;strokeWidth=2;perimeter=parallelogramPerimeter;whiteSpace=wrap;rounded=1;arcSize=12;size=0.23;" parent="1" vertex="1">
                    <mxGeometry x="680" y="160" width="90" height="70" as="geometry"/>
                </mxCell>
                <mxCell id="39" value="" style="edgeStyle=none;rounded=1;html=1;endArrow=blockThin;endFill=1;" parent="1" source="36" target="31" edge="1">
                    <mxGeometry relative="1" as="geometry"/>
                </mxCell>
                <mxCell id="36" value="Map/Data" style="strokeWidth=2;html=1;shape=mxgraph.flowchart.database;whiteSpace=wrap;spacingTop=4;" parent="1" vertex="1">
                    <mxGeometry x="580" y="160" width="60" height="70" as="geometry"/>
                </mxCell>
                <mxCell id="41" value="Given a set of feedstock locations, a set of potential plant locations, the objective is to maximize the coverage of feedstock locations while minimizing the total transportation distance and considering a budget constraint on the number of plants that can be built.&amp;nbsp;" style="text;html=1;strokeColor=none;fillColor=none;align=left;verticalAlign=middle;whiteSpace=wrap;rounded=0;" parent="1" vertex="1">
                    <mxGeometry x="120" y="440" width="430" height="90" as="geometry"/>
                </mxCell>
                <mxCell id="43" value="&lt;font style=&quot;font-size: 12px;&quot;&gt;&lt;font style=&quot;font-size: 12px;&quot;&gt;&lt;span style=&quot;&quot;&gt;&lt;font style=&quot;font-size: 12px;&quot;&gt;F: The set of feedstock locations, where \(n:=|F| \). \[ F = \{f_1, f_2, f_3, \ldots, f_n\}\]&lt;/font&gt;&lt;/span&gt;&lt;/font&gt;&lt;span id=&quot;docs-internal-guid-d7d6a5e9-7fff-3747-1d99-b8a17d7eb3a2&quot;&gt;&lt;span style=&quot;font-family: Barlow, sans-serif; background-color: transparent; font-variant-numeric: normal; font-variant-east-asian: normal; vertical-align: baseline;&quot;&gt;&lt;br&gt;&lt;/span&gt;&lt;/span&gt;&lt;/font&gt;" style="text;html=1;strokeColor=none;fillColor=none;align=left;verticalAlign=middle;whiteSpace=wrap;rounded=0;" parent="1" vertex="1">
                    <mxGeometry x="120" y="570" width="400" height="50" as="geometry"/>
                </mxCell>
                <mxCell id="44" value="P: The set of potential plant locations, where&amp;nbsp;&lt;span style=&quot;&quot;&gt;&amp;nbsp;\(m:=|P| \).&amp;nbsp;&lt;/span&gt;&lt;span style=&quot;&quot;&gt;\[ P = \{p_1, p_2, p_3, \ldots, p_m\}\]&lt;/span&gt;" style="text;html=1;strokeColor=none;fillColor=none;align=left;verticalAlign=middle;whiteSpace=wrap;rounded=0;fontSize=12;" parent="1" vertex="1">
                    <mxGeometry x="120" y="640" width="400" height="30" as="geometry"/>
                </mxCell>
                <mxCell id="45" value="&lt;font style=&quot;font-size: 12px;&quot;&gt;C: A matrix of size&amp;nbsp;&lt;span style=&quot;&quot;&gt;\( n \times m \)&lt;/span&gt;, where&amp;nbsp;&lt;span style=&quot;&quot;&gt;&amp;nbsp;\(C_{ij}\) represent between each feedstock location&amp;nbsp;&lt;/span&gt;\( i \) and potential&lt;span style=&quot;&quot;&gt;&amp;nbsp;plant&amp;nbsp;&amp;nbsp;&lt;/span&gt;&lt;span style=&quot;&quot;&gt;\( j \)&lt;/span&gt;&lt;span style=&quot;&quot;&gt;.&lt;br&gt;&lt;/span&gt;&lt;span style=&quot;&quot;&gt;\[\mathbf{C}:=[C_{ij}]_{n\times m}\]&lt;/span&gt;&lt;/font&gt;&lt;span style=&quot;&quot;&gt;&lt;br&gt;&lt;/span&gt;" style="text;html=1;strokeColor=none;fillColor=none;align=left;verticalAlign=middle;whiteSpace=wrap;rounded=0;fontSize=12;" parent="1" vertex="1">
                    <mxGeometry x="120" y="720" width="400" height="44.44" as="geometry"/>
                </mxCell>
                <mxCell id="51" value="&lt;div style=&quot;text-align: left;&quot;&gt;&lt;span style=&quot;background-color: initial;&quot;&gt;B: Budget constraint represented by the maximum number of plants that can be built within the budget.&amp;nbsp;&lt;/span&gt;&lt;/div&gt;&lt;font style=&quot;font-size: 12px;&quot;&gt;&lt;span id=&quot;docs-internal-guid-def9f7a5-7fff-8f22-0a7a-3c3afaaced15&quot;&gt;&lt;p style=&quot;text-align: left; line-height: 1.38; margin-top: 0pt; margin-bottom: 0pt;&quot; dir=&quot;ltr&quot;&gt;&lt;span style=&quot;font-family: Barlow, sans-serif; background-color: transparent; font-variant-numeric: normal; font-variant-east-asian: normal; vertical-align: baseline;&quot;&gt;&lt;font style=&quot;font-size: 12px;&quot;&gt;\[ \sum_{j=1}^{m} X[j] \leq B \]&lt;/font&gt;&lt;/span&gt;&lt;/p&gt;&lt;p style=&quot;line-height:1.38;margin-top:0pt;margin-bottom:0pt;&quot; dir=&quot;ltr&quot;&gt;&lt;/p&gt;&lt;ul&gt;&lt;li style=&quot;text-align: left;&quot;&gt;&lt;span style=&quot;font-family: Barlow, sans-serif; color: rgb(0, 0, 0); background-color: transparent; font-weight: 400; font-style: normal; font-variant: normal; text-decoration: none; vertical-align: baseline;&quot;&gt;\(X[j]\) is a binary decision variable representing whether a biogas processing plant is built at location \(j\) (1 if built, 0 if not).&lt;/span&gt;&lt;/li&gt;&lt;li style=&quot;text-align: left;&quot;&gt;&lt;span style=&quot;font-family: Barlow, sans-serif; color: rgb(0, 0, 0); background-color: transparent; font-weight: 400; font-style: normal; font-variant: normal; text-decoration: none; vertical-align: baseline;&quot;&gt;\(m\) is the total number of potential plant locations.&lt;/span&gt;&lt;/li&gt;&lt;li style=&quot;text-align: left;&quot;&gt;&lt;span style=&quot;font-family: Barlow, sans-serif; color: rgb(0, 0, 0); background-color: transparent; font-weight: 400; font-style: normal; font-variant: normal; text-decoration: none; vertical-align: baseline;&quot;&gt;The summation \(\sum_{j=1}^{m} X[j]\) calculates the total number of plants built.&lt;/span&gt;&lt;/li&gt;&lt;/ul&gt;&lt;p&gt;&lt;/p&gt;&lt;p style=&quot;line-height:1.38;margin-top:0pt;margin-bottom:0pt;&quot; dir=&quot;ltr&quot;&gt;&lt;span style=&quot;font-family: Barlow, sans-serif; background-color: transparent; font-variant-numeric: normal; font-variant-east-asian: normal; vertical-align: baseline;&quot;&gt;&lt;font style=&quot;font-size: 12px;&quot;&gt;&lt;span id=&quot;docs-internal-guid-fa30f236-7fff-2b56-960d-c291ab59fe8a&quot;&gt;&lt;/span&gt;&lt;/font&gt;&lt;/span&gt;&lt;/p&gt;&lt;/span&gt;&lt;/font&gt;" style="text;html=1;strokeColor=none;fillColor=none;align=center;verticalAlign=middle;whiteSpace=wrap;rounded=0;fontSize=12;" parent="1" vertex="1">
                    <mxGeometry x="120" y="820" width="400" height="160" as="geometry"/>
                </mxCell>
                <mxCell id="54" value="&lt;div style=&quot;text-align: left;&quot;&gt;&lt;font style=&quot;font-size: 12px;&quot;&gt;&lt;span style=&quot;background-color: initial;&quot;&gt;Decision variable:&amp;nbsp;&lt;/span&gt;&lt;span style=&quot;background-color: initial;&quot; id=&quot;docs-internal-guid-231e80e5-7fff-9483-0301-b8710d62df2a&quot;&gt;&lt;span style=&quot;background-color: transparent; font-variant-numeric: normal; font-variant-east-asian: normal; vertical-align: baseline;&quot;&gt;Binary decision variable indicating whether a biogas processing plant is built at location \(j\).&lt;/span&gt;&lt;/span&gt;&lt;/font&gt;&lt;/div&gt;&lt;font style=&quot;font-size: 12px;&quot;&gt;&lt;span style=&quot;text-align: left;&quot;&gt;\(\mathbf{x}:=[x]_{3\times 1} \in&amp;nbsp; \left \{0, 1\right \}\)&lt;br&gt;&lt;/span&gt;&lt;span style=&quot;&quot; id=&quot;docs-internal-guid-3de9233c-7fff-b12f-bd91-92c39c13ba9c&quot;&gt;&lt;p style=&quot;line-height: 1.38; margin-top: 0pt; margin-bottom: 0pt;&quot; dir=&quot;ltr&quot;&gt;&lt;span style=&quot;font-family: Barlow, sans-serif; background-color: transparent; font-variant-numeric: normal; font-variant-east-asian: normal; vertical-align: baseline;&quot;&gt;\[ \mathbf{x} = (X[j] : j \in L)\]&lt;/span&gt;&lt;/p&gt;&lt;/span&gt;&lt;/font&gt;" style="text;html=1;strokeColor=none;fillColor=none;align=center;verticalAlign=middle;whiteSpace=wrap;rounded=0;fontSize=12;" parent="1" vertex="1">
                    <mxGeometry x="150" y="1040" width="320" height="70" as="geometry"/>
                </mxCell>
                <mxCell id="58" value="&lt;div style=&quot;text-align: left;&quot;&gt;&lt;font face=&quot;Helvetica Neue&quot;&gt;&lt;span style=&quot;font-size: 13px;&quot;&gt;Goal: Present the spatial distribution biogas plants and it's impacts on RE generation and emissions given various scenarios on the percentage of manure used in biogas production.&amp;nbsp;&lt;/span&gt;&lt;/font&gt;&lt;/div&gt;" style="text;html=1;strokeColor=none;fillColor=none;align=center;verticalAlign=middle;whiteSpace=wrap;rounded=0;labelBackgroundColor=none;fontFamily=Helvetica;fontSize=12;" parent="1" vertex="1">
                    <mxGeometry x="-870" y="370" width="500" height="80" as="geometry"/>
                </mxCell>
                <mxCell id="64" value="" style="dashed=0;verticalLabelPosition=bottom;verticalAlign=top;align=center;shape=mxgraph.gmdl.slider2;barPos=50;strokeColor=#3F51B5;opacity=100;strokeWidth=2;fillColor=#3F51B5;handleSize=10;shadow=0;labelBackgroundColor=none;fontFamily=Helvetica;fontSize=12;" parent="1" vertex="1">
                    <mxGeometry x="-600" y="490" width="100" height="10" as="geometry"/>
                </mxCell>
                <mxCell id="67" value="USER INTERACTION" style="text;html=1;strokeColor=none;fillColor=none;align=center;verticalAlign=middle;whiteSpace=wrap;rounded=0;dashed=1;labelBackgroundColor=none;fontFamily=Helvetica;fontSize=12;rotation=270;" parent="1" vertex="1">
                    <mxGeometry x="-930" y="530" width="130" height="30" as="geometry"/>
                </mxCell>
                <mxCell id="70" value="% manure used for biogas production&lt;br&gt;&lt;div style=&quot;text-align: left;&quot;&gt;&lt;span style=&quot;background-color: initial;&quot;&gt;(10-100%, in interval of 10)&lt;/span&gt;&lt;/div&gt;" style="text;html=1;strokeColor=none;fillColor=none;align=center;verticalAlign=middle;whiteSpace=wrap;rounded=0;dashed=1;labelBackgroundColor=none;fontFamily=Helvetica;fontSize=12;" parent="1" vertex="1">
                    <mxGeometry x="-830" y="480" width="220" height="40" as="geometry"/>
                </mxCell>
                <mxCell id="71" value="RESULTS" style="text;html=1;strokeColor=none;fillColor=none;align=center;verticalAlign=middle;whiteSpace=wrap;rounded=0;dashed=1;labelBackgroundColor=none;fontFamily=Helvetica;fontSize=12;rotation=270;" parent="1" vertex="1">
                    <mxGeometry x="-930" y="690" width="130" height="30" as="geometry"/>
                </mxCell>
                <mxCell id="72" value="Biogas potential (m3)" style="text;html=1;strokeColor=default;fillColor=none;align=center;verticalAlign=middle;whiteSpace=wrap;rounded=0;" parent="1" vertex="1">
                    <mxGeometry x="-820" y="640" width="110" height="60" as="geometry"/>
                </mxCell>
                <mxCell id="74" value="Nitrogen saving" style="text;html=1;strokeColor=default;fillColor=none;align=center;verticalAlign=middle;whiteSpace=wrap;rounded=0;" parent="1" vertex="1">
                    <mxGeometry x="-690" y="640" width="110" height="60" as="geometry"/>
                </mxCell>
                <mxCell id="75" value="Biogas cost (euro/kWh)" style="text;html=1;strokeColor=default;fillColor=none;align=center;verticalAlign=middle;whiteSpace=wrap;rounded=0;" parent="1" vertex="1">
                    <mxGeometry x="-560" y="640" width="110" height="60" as="geometry"/>
                </mxCell>
                <mxCell id="76" value="Transport cost" style="text;html=1;strokeColor=default;fillColor=none;align=center;verticalAlign=middle;whiteSpace=wrap;rounded=0;" parent="1" vertex="1">
                    <mxGeometry x="-800" y="760" width="110" height="60" as="geometry"/>
                </mxCell>
                <mxCell id="77" value="CAPEX" style="text;html=1;strokeColor=default;fillColor=none;align=center;verticalAlign=middle;whiteSpace=wrap;rounded=0;" parent="1" vertex="1">
                    <mxGeometry x="-670" y="760" width="110" height="60" as="geometry"/>
                </mxCell>
                <mxCell id="141" value="" style="childLayout=tableLayout;recursiveResize=0;shadow=0;fillColor=none;strokeColor=default;" parent="1" vertex="1">
                    <mxGeometry x="-890" y="950" width="700" height="240" as="geometry"/>
                </mxCell>
                <mxCell id="142" value="" style="shape=tableRow;horizontal=0;startSize=0;swimlaneHead=0;swimlaneBody=0;top=0;left=0;bottom=0;right=0;dropTarget=0;collapsible=0;recursiveResize=0;expand=0;fontStyle=0;fillColor=none;strokeColor=inherit;" parent="141" vertex="1">
                    <mxGeometry width="700" height="61" as="geometry"/>
                </mxCell>
                <mxCell id="143" value="Scale&amp;nbsp;" style="connectable=0;recursiveResize=0;strokeColor=inherit;fillColor=none;align=center;whiteSpace=wrap;html=1;fontStyle=1" parent="142" vertex="1">
                    <mxGeometry width="80" height="61" as="geometry">
                        <mxRectangle width="80" height="61" as="alternateBounds"/>
                    </mxGeometry>
                </mxCell>
                <mxCell id="144" value="Properties of feedstock location" style="connectable=0;recursiveResize=0;strokeColor=inherit;fillColor=none;align=center;whiteSpace=wrap;html=1;fontStyle=1" parent="142" vertex="1">
                    <mxGeometry x="80" width="220" height="61" as="geometry">
                        <mxRectangle width="220" height="61" as="alternateBounds"/>
                    </mxGeometry>
                </mxCell>
                <mxCell id="145" value="Placement" style="connectable=0;recursiveResize=0;strokeColor=inherit;fillColor=none;align=center;whiteSpace=wrap;html=1;fontStyle=1" parent="142" vertex="1">
                    <mxGeometry x="300" width="260" height="61" as="geometry">
                        <mxRectangle width="260" height="61" as="alternateBounds"/>
                    </mxGeometry>
                </mxCell>
                <mxCell id="159" value="Space requirement (ha)" style="connectable=0;recursiveResize=0;strokeColor=inherit;fillColor=none;align=center;whiteSpace=wrap;html=1;fontStyle=1" parent="142" vertex="1">
                    <mxGeometry x="560" width="140" height="61" as="geometry">
                        <mxRectangle width="140" height="61" as="alternateBounds"/>
                    </mxGeometry>
                </mxCell>
                <mxCell id="146" style="shape=tableRow;horizontal=0;startSize=0;swimlaneHead=0;swimlaneBody=0;top=0;left=0;bottom=0;right=0;dropTarget=0;collapsible=0;recursiveResize=0;expand=0;fontStyle=0;fillColor=none;strokeColor=inherit;" parent="141" vertex="1">
                    <mxGeometry y="61" width="700" height="58" as="geometry"/>
                </mxCell>
                <mxCell id="147" value="Small" style="connectable=0;recursiveResize=0;strokeColor=inherit;fillColor=none;align=center;whiteSpace=wrap;html=1;" parent="146" vertex="1">
                    <mxGeometry width="80" height="58" as="geometry">
                        <mxRectangle width="80" height="58" as="alternateBounds"/>
                    </mxGeometry>
                </mxCell>
                <mxCell id="148" value="Dairy farm with maximum 150 cows" style="connectable=0;recursiveResize=0;strokeColor=inherit;fillColor=none;align=left;whiteSpace=wrap;html=1;" parent="146" vertex="1">
                    <mxGeometry x="80" width="220" height="58" as="geometry">
                        <mxRectangle width="220" height="58" as="alternateBounds"/>
                    </mxGeometry>
                </mxCell>
                <mxCell id="149" value="On the farm" style="connectable=0;recursiveResize=0;strokeColor=inherit;fillColor=none;align=left;whiteSpace=wrap;html=1;" parent="146" vertex="1">
                    <mxGeometry x="300" width="260" height="58" as="geometry">
                        <mxRectangle width="260" height="58" as="alternateBounds"/>
                    </mxGeometry>
                </mxCell>
                <mxCell id="160" value="0" style="connectable=0;recursiveResize=0;strokeColor=inherit;fillColor=none;align=center;whiteSpace=wrap;html=1;" parent="146" vertex="1">
                    <mxGeometry x="560" width="140" height="58" as="geometry">
                        <mxRectangle width="140" height="58" as="alternateBounds"/>
                    </mxGeometry>
                </mxCell>
                <mxCell id="150" style="shape=tableRow;horizontal=0;startSize=0;swimlaneHead=0;swimlaneBody=0;top=0;left=0;bottom=0;right=0;dropTarget=0;collapsible=0;recursiveResize=0;expand=0;fontStyle=0;fillColor=none;strokeColor=inherit;" parent="141" vertex="1">
                    <mxGeometry y="119" width="700" height="61" as="geometry"/>
                </mxCell>
                <mxCell id="151" value="Medium" style="connectable=0;recursiveResize=0;strokeColor=inherit;fillColor=none;align=center;whiteSpace=wrap;html=1;" parent="150" vertex="1">
                    <mxGeometry width="80" height="61" as="geometry">
                        <mxRectangle width="80" height="61" as="alternateBounds"/>
                    </mxGeometry>
                </mxCell>
                <mxCell id="152" value="Dairy farm with 150 - 1000 cows" style="connectable=0;recursiveResize=0;strokeColor=inherit;fillColor=none;align=left;whiteSpace=wrap;html=1;" parent="150" vertex="1">
                    <mxGeometry x="80" width="220" height="61" as="geometry">
                        <mxRectangle width="220" height="61" as="alternateBounds"/>
                    </mxGeometry>
                </mxCell>
                <mxCell id="153" value="Far away from residential areas" style="connectable=0;recursiveResize=0;strokeColor=inherit;fillColor=none;align=left;whiteSpace=wrap;html=1;" parent="150" vertex="1">
                    <mxGeometry x="300" width="260" height="61" as="geometry">
                        <mxRectangle width="260" height="61" as="alternateBounds"/>
                    </mxGeometry>
                </mxCell>
                <mxCell id="161" value="1 - 2" style="connectable=0;recursiveResize=0;strokeColor=inherit;fillColor=none;align=center;whiteSpace=wrap;html=1;" parent="150" vertex="1">
                    <mxGeometry x="560" width="140" height="61" as="geometry">
                        <mxRectangle width="140" height="61" as="alternateBounds"/>
                    </mxGeometry>
                </mxCell>
                <mxCell id="155" style="shape=tableRow;horizontal=0;startSize=0;swimlaneHead=0;swimlaneBody=0;top=0;left=0;bottom=0;right=0;dropTarget=0;collapsible=0;recursiveResize=0;expand=0;fontStyle=0;fillColor=none;strokeColor=inherit;" parent="141" vertex="1">
                    <mxGeometry y="180" width="700" height="60" as="geometry"/>
                </mxCell>
                <mxCell id="156" value="Large" style="connectable=0;recursiveResize=0;strokeColor=inherit;fillColor=none;align=center;whiteSpace=wrap;html=1;" parent="155" vertex="1">
                    <mxGeometry width="80" height="60" as="geometry">
                        <mxRectangle width="80" height="60" as="alternateBounds"/>
                    </mxGeometry>
                </mxCell>
                <mxCell id="157" value="Chicken farm&lt;br&gt;Pig farm" style="connectable=0;recursiveResize=0;strokeColor=inherit;fillColor=none;align=left;whiteSpace=wrap;html=1;" parent="155" vertex="1">
                    <mxGeometry x="80" width="220" height="60" as="geometry">
                        <mxRectangle width="220" height="60" as="alternateBounds"/>
                    </mxGeometry>
                </mxCell>
                <mxCell id="158" value="Far away from residential areas&lt;br&gt;Close to inudstrial areas&lt;br&gt;Close to waste sites" style="connectable=0;recursiveResize=0;strokeColor=inherit;fillColor=none;align=left;whiteSpace=wrap;html=1;" parent="155" vertex="1">
                    <mxGeometry x="300" width="260" height="60" as="geometry">
                        <mxRectangle width="260" height="60" as="alternateBounds"/>
                    </mxGeometry>
                </mxCell>
                <mxCell id="162" value="4 - 5" style="connectable=0;recursiveResize=0;strokeColor=inherit;fillColor=none;align=center;whiteSpace=wrap;html=1;" parent="155" vertex="1">
                    <mxGeometry x="560" width="140" height="60" as="geometry">
                        <mxRectangle width="140" height="60" as="alternateBounds"/>
                    </mxGeometry>
                </mxCell>
                <mxCell id="154" value="Assignment of different scales of digester to feedstock locations" style="text;html=1;strokeColor=none;fillColor=none;align=left;verticalAlign=middle;whiteSpace=wrap;rounded=0;fontSize=15;labelBackgroundColor=#FFFF33;" parent="1" vertex="1">
                    <mxGeometry x="-890" y="910" width="520" height="30" as="geometry"/>
                </mxCell>
                <mxCell id="163" value="Do we assume dairy farms do not need clustering but can always just have digester on the farm? -In reality, does it make economic sense to transport small farm manures to bigger sites?&amp;nbsp;" style="text;html=1;strokeColor=none;fillColor=none;align=left;verticalAlign=middle;whiteSpace=wrap;rounded=0;labelBackgroundColor=none;fontSize=12;fontColor=#FF3333;" parent="1" vertex="1">
                    <mxGeometry x="-330" y="350" width="280" height="130" as="geometry"/>
                </mxCell>
                <mxCell id="164" value="Check how biogas price is determined - maybe this can be calculated by the total biogas potential/total cost for simplicity?" style="text;html=1;strokeColor=none;fillColor=none;align=left;verticalAlign=middle;whiteSpace=wrap;rounded=0;labelBackgroundColor=none;fontSize=12;fontColor=#FF3333;" parent="1" vertex="1">
                    <mxGeometry x="-320" y="520" width="280" height="90" as="geometry"/>
                </mxCell>
                <mxCell id="165" value="Biogas potential will just be a display of value but doesn't have any role in the optimisation right? Because the biogas potential will be bascially extrapolated from&amp;nbsp;" style="text;html=1;strokeColor=none;fillColor=none;align=left;verticalAlign=middle;whiteSpace=wrap;rounded=0;labelBackgroundColor=none;fontSize=12;fontColor=#FF3333;" parent="1" vertex="1">
                    <mxGeometry x="-830" y="550" width="280" height="70" as="geometry"/>
                </mxCell>
                <mxCell id="167" value="&lt;p style=&quot;margin: 0px; font-variant-numeric: normal; font-variant-east-asian: normal; font-variant-alternates: normal; font-kerning: auto; font-optical-sizing: auto; font-feature-settings: normal; font-variation-settings: normal; font-stretch: normal; font-size: 13px; line-height: normal; font-family: &amp;quot;Helvetica Neue&amp;quot;;&quot; class=&quot;p1&quot;&gt;&lt;br&gt;&lt;/p&gt;&lt;p style=&quot;margin: 0px; font-variant-numeric: normal; font-variant-east-asian: normal; font-variant-alternates: normal; font-kerning: auto; font-optical-sizing: auto; font-feature-settings: normal; font-variation-settings: normal; font-stretch: normal; font-size: 13px; line-height: normal; font-family: &amp;quot;Helvetica Neue&amp;quot;;&quot; class=&quot;p1&quot;&gt;\(\text{Subject to}:\)&lt;/p&gt;&lt;p style=&quot;margin: 0px; font-variant-numeric: normal; font-variant-east-asian: normal; font-variant-alternates: normal; font-kerning: auto; font-optical-sizing: auto; font-feature-settings: normal; font-variation-settings: normal; font-stretch: normal; font-size: 13px; line-height: normal; font-family: &amp;quot;Helvetica Neue&amp;quot;;&quot; class=&quot;p1&quot;&gt;&lt;br&gt;&lt;/p&gt;&lt;p style=&quot;margin: 0px; font-variant-numeric: normal; font-variant-east-asian: normal; font-variant-alternates: normal; font-kerning: auto; font-optical-sizing: auto; font-feature-settings: normal; font-variation-settings: normal; font-stretch: normal; font-size: 13px; line-height: normal; font-family: &amp;quot;Helvetica Neue&amp;quot;;&quot; class=&quot;p1&quot;&gt;\[\sum_{j \in \text{Plant}}^{m} x_{ij} = p_i a_i, \forall i \in \text{Farm} \]&lt;/p&gt;&lt;p style=&quot;margin: 0px; font-variant-numeric: normal; font-variant-east-asian: normal; font-variant-alternates: normal; font-kerning: auto; font-optical-sizing: auto; font-feature-settings: normal; font-variation-settings: normal; font-stretch: normal; font-size: 13px; line-height: normal; font-family: &amp;quot;Helvetica Neue&amp;quot;;&quot; class=&quot;p1&quot;&gt;&lt;br&gt;&lt;/p&gt;&lt;p style=&quot;margin: 0px; font-variant-numeric: normal; font-variant-east-asian: normal; font-variant-alternates: normal; font-kerning: auto; font-optical-sizing: auto; font-feature-settings: normal; font-variation-settings: normal; font-stretch: normal; font-size: 13px; line-height: normal; font-family: &amp;quot;Helvetica Neue&amp;quot;;&quot; class=&quot;p1&quot;&gt;\[\sum_{i \in \text{Farm}}^{n} x_{ij} \leq M_j y_j, \forall j \in \text{Plant} \]&lt;/p&gt;&lt;p style=&quot;margin: 0px; font-variant-numeric: normal; font-variant-east-asian: normal; font-variant-alternates: normal; font-kerning: auto; font-optical-sizing: auto; font-feature-settings: normal; font-variation-settings: normal; font-stretch: normal; font-size: 13px; line-height: normal; font-family: &amp;quot;Helvetica Neue&amp;quot;;&quot; class=&quot;p1&quot;&gt;&lt;br&gt;&lt;/p&gt;&lt;p style=&quot;margin: 0px; font-variant-numeric: normal; font-variant-east-asian: normal; font-variant-alternates: normal; font-kerning: auto; font-optical-sizing: auto; font-feature-settings: normal; font-variation-settings: normal; font-stretch: normal; font-size: 13px; line-height: normal; font-family: &amp;quot;Helvetica Neue&amp;quot;;&quot; class=&quot;p1&quot;&gt;\[x_{ij} \leq p_i \cdot y_j, \forall i \in \text{Farm}, \forall j \in \text{Plant} \]&lt;/p&gt;&lt;p style=&quot;margin: 0px; font-variant-numeric: normal; font-variant-east-asian: normal; font-variant-alternates: normal; font-kerning: auto; font-optical-sizing: auto; font-feature-settings: normal; font-variation-settings: normal; font-stretch: normal; font-size: 13px; line-height: normal; font-family: &amp;quot;Helvetica Neue&amp;quot;;&quot; class=&quot;p1&quot;&gt;&lt;br&gt;&lt;/p&gt;&lt;p style=&quot;margin: 0px; font-variant-numeric: normal; font-variant-east-asian: normal; font-variant-alternates: normal; font-kerning: auto; font-optical-sizing: auto; font-feature-settings: normal; font-variation-settings: normal; font-stretch: normal; font-size: 13px; line-height: normal; font-family: &amp;quot;Helvetica Neue&amp;quot;;&quot; class=&quot;p1&quot;&gt;\[\sum_{i \in \text{Farm}}^{n} \sum_{j \in \text{Plant}}^{m} x_{ij} \geq T P\]&lt;br&gt;&lt;/p&gt;&lt;p style=&quot;margin: 0px; font-variant-numeric: normal; font-variant-east-asian: normal; font-variant-alternates: normal; font-kerning: auto; font-optical-sizing: auto; font-feature-settings: normal; font-variation-settings: normal; font-stretch: normal; font-size: 13px; line-height: normal; font-family: &amp;quot;Helvetica Neue&amp;quot;;&quot; class=&quot;p1&quot;&gt;&lt;br&gt;&lt;/p&gt;&lt;p style=&quot;margin: 0px; font-variant-numeric: normal; font-variant-east-asian: normal; font-variant-alternates: normal; font-kerning: auto; font-optical-sizing: auto; font-feature-settings: normal; font-variation-settings: normal; font-stretch: normal; font-size: 13px; line-height: normal; font-family: &amp;quot;Helvetica Neue&amp;quot;;&quot; class=&quot;p1&quot;&gt;\[x_{ij} \geq 0 \]&lt;/p&gt;&lt;p style=&quot;margin: 0px; font-variant-numeric: normal; font-variant-east-asian: normal; font-variant-alternates: normal; font-kerning: auto; font-optical-sizing: auto; font-feature-settings: normal; font-variation-settings: normal; font-stretch: normal; font-size: 13px; line-height: normal; font-family: &amp;quot;Helvetica Neue&amp;quot;;&quot; class=&quot;p1&quot;&gt;&lt;br&gt;&lt;/p&gt;&lt;p style=&quot;margin: 0px; font-variant-numeric: normal; font-variant-east-asian: normal; font-variant-alternates: normal; font-kerning: auto; font-optical-sizing: auto; font-feature-settings: normal; font-variation-settings: normal; font-stretch: normal; font-size: 13px; line-height: normal; font-family: &amp;quot;Helvetica Neue&amp;quot;;&quot; class=&quot;p1&quot;&gt;&lt;span style=&quot;font-family: Helvetica; font-size: 12px;&quot;&gt;\[ y_j \in \left \{0,1 \right \}\]&lt;/span&gt;&lt;br&gt;&lt;/p&gt;" style="text;html=1;strokeColor=none;fillColor=none;align=left;verticalAlign=middle;whiteSpace=wrap;rounded=0;" parent="1" vertex="1">
                    <mxGeometry x="1150" y="1170" width="300" height="430" as="geometry"/>
                </mxCell>
                <mxCell id="171" value="&lt;p style=&quot;border-color: var(--border-color); line-height: 1.38; margin-top: 0pt; margin-bottom: 0pt;&quot; dir=&quot;ltr&quot;&gt;&lt;span style=&quot;border-color: var(--border-color); font-family: Barlow, sans-serif; background-color: transparent; font-variant-numeric: normal; font-variant-east-asian: normal; vertical-align: baseline;&quot;&gt;\[ \sum_{j=1}^{m} f_j y_j + \sum_{i=1}^{n} \sum_{j=1}^{m} c_{ij} x_{ij}\]&lt;/span&gt;&lt;/p&gt;&lt;span style=&quot;border-color: var(--border-color); font-family: Barlow, sans-serif;&quot;&gt;&lt;/span&gt;" style="text;html=1;strokeColor=none;fillColor=none;align=left;verticalAlign=middle;whiteSpace=wrap;rounded=0;" vertex="1" parent="1">
                    <mxGeometry x="100" y="1210" width="170" height="60" as="geometry"/>
                </mxCell>
                <mxCell id="172" value="&lt;p style=&quot;border-color: var(--border-color); line-height: 1.38; margin-top: 0pt; margin-bottom: 0pt;&quot; dir=&quot;ltr&quot;&gt;&lt;span style=&quot;border-color: var(--border-color); font-family: Barlow, sans-serif; background-color: transparent; font-variant-numeric: normal; font-variant-east-asian: normal; vertical-align: baseline;&quot;&gt;\[ \text{Minimize} \sum_{j \in \text{Plant}}^{m} f_j y_j + \sum_{i \in \text{Farm}}^{n} \sum_{j \in \text{Plant}}^{m} c_{ij} x_{ij}\]&lt;/span&gt;&lt;/p&gt;&lt;span style=&quot;border-color: var(--border-color); font-family: Barlow, sans-serif;&quot;&gt;&lt;/span&gt;" style="text;html=1;strokeColor=none;fillColor=none;align=left;verticalAlign=middle;whiteSpace=wrap;rounded=0;" vertex="1" parent="1">
                    <mxGeometry x="1150" y="1030" width="270" height="80" as="geometry"/>
                </mxCell>
                <mxCell id="185" value="Decision Variables" style="shape=table;startSize=30;container=1;collapsible=0;childLayout=tableLayout;fixedRows=1;rowLines=0;fontStyle=1;" vertex="1" parent="1">
                    <mxGeometry x="1700" y="910" width="300" height="180" as="geometry"/>
                </mxCell>
                <mxCell id="186" value="" style="shape=tableRow;horizontal=0;startSize=0;swimlaneHead=0;swimlaneBody=0;top=0;left=0;bottom=0;right=0;collapsible=0;dropTarget=0;fillColor=none;points=[[0,0.5],[1,0.5]];portConstraint=eastwest;" vertex="1" parent="185">
                    <mxGeometry y="30" width="300" height="50" as="geometry"/>
                </mxCell>
                <mxCell id="187" value="\(x_{ij}\)" style="shape=partialRectangle;html=1;whiteSpace=wrap;connectable=0;fillColor=none;top=0;left=0;bottom=0;right=0;overflow=hidden;pointerEvents=1;verticalAlign=middle;" vertex="1" parent="186">
                    <mxGeometry width="67" height="50" as="geometry">
                        <mxRectangle width="67" height="50" as="alternateBounds"/>
                    </mxGeometry>
                </mxCell>
                <mxCell id="188" value="Non-negative variable representing the amount of manure from from \(i\) serviced by the plant at location \(j\)" style="shape=partialRectangle;html=1;whiteSpace=wrap;connectable=0;fillColor=none;top=0;left=0;bottom=0;right=0;align=left;spacingLeft=6;overflow=hidden;" vertex="1" parent="186">
                    <mxGeometry x="67" width="233" height="50" as="geometry">
                        <mxRectangle width="233" height="50" as="alternateBounds"/>
                    </mxGeometry>
                </mxCell>
                <mxCell id="189" value="" style="shape=tableRow;horizontal=0;startSize=0;swimlaneHead=0;swimlaneBody=0;top=0;left=0;bottom=0;right=0;collapsible=0;dropTarget=0;fillColor=none;points=[[0,0.5],[1,0.5]];portConstraint=eastwest;" vertex="1" parent="185">
                    <mxGeometry y="80" width="300" height="50" as="geometry"/>
                </mxCell>
                <mxCell id="190" value="\(y_{j}\)" style="shape=partialRectangle;html=1;whiteSpace=wrap;connectable=0;fillColor=none;top=0;left=0;bottom=0;right=0;overflow=hidden;" vertex="1" parent="189">
                    <mxGeometry width="67" height="50" as="geometry">
                        <mxRectangle width="67" height="50" as="alternateBounds"/>
                    </mxGeometry>
                </mxCell>
                <mxCell id="191" value="Binary variable indicating whether a plant at location \(j\) is open (1) or not open (0)&amp;nbsp;" style="shape=partialRectangle;html=1;whiteSpace=wrap;connectable=0;fillColor=none;top=0;left=0;bottom=0;right=0;align=left;spacingLeft=6;overflow=hidden;" vertex="1" parent="189">
                    <mxGeometry x="67" width="233" height="50" as="geometry">
                        <mxRectangle width="233" height="50" as="alternateBounds"/>
                    </mxGeometry>
                </mxCell>
                <mxCell id="198" style="shape=tableRow;horizontal=0;startSize=0;swimlaneHead=0;swimlaneBody=0;top=0;left=0;bottom=0;right=0;collapsible=0;dropTarget=0;fillColor=none;points=[[0,0.5],[1,0.5]];portConstraint=eastwest;" vertex="1" parent="185">
                    <mxGeometry y="130" width="300" height="50" as="geometry"/>
                </mxCell>
                <mxCell id="199" value="\(a_{i}\)" style="shape=partialRectangle;html=1;whiteSpace=wrap;connectable=0;fillColor=none;top=0;left=0;bottom=0;right=0;overflow=hidden;" vertex="1" parent="198">
                    <mxGeometry width="67" height="50" as="geometry">
                        <mxRectangle width="67" height="50" as="alternateBounds"/>
                    </mxGeometry>
                </mxCell>
                <mxCell id="200" value="Binary variable indicating whether farm \(i\) is assigned to any plant (1) or not assigned (0)" style="shape=partialRectangle;html=1;whiteSpace=wrap;connectable=0;fillColor=none;top=0;left=0;bottom=0;right=0;align=left;spacingLeft=6;overflow=hidden;" vertex="1" parent="198">
                    <mxGeometry x="67" width="233" height="50" as="geometry">
                        <mxRectangle width="233" height="50" as="alternateBounds"/>
                    </mxGeometry>
                </mxCell>
                <mxCell id="204" value="Parameters" style="shape=table;startSize=30;container=1;collapsible=0;childLayout=tableLayout;fixedRows=1;rowLines=0;fontStyle=1;" vertex="1" parent="1">
                    <mxGeometry x="2030" y="910" width="270" height="330" as="geometry"/>
                </mxCell>
                <mxCell id="205" value="" style="shape=tableRow;horizontal=0;startSize=0;swimlaneHead=0;swimlaneBody=0;top=0;left=0;bottom=0;right=0;collapsible=0;dropTarget=0;fillColor=none;points=[[0,0.5],[1,0.5]];portConstraint=eastwest;" vertex="1" parent="204">
                    <mxGeometry y="30" width="270" height="50" as="geometry"/>
                </mxCell>
                <mxCell id="206" value="\(f_{j}\)" style="shape=partialRectangle;html=1;whiteSpace=wrap;connectable=0;fillColor=none;top=0;left=0;bottom=0;right=0;overflow=hidden;pointerEvents=1;verticalAlign=middle;" vertex="1" parent="205">
                    <mxGeometry width="60" height="50" as="geometry">
                        <mxRectangle width="60" height="50" as="alternateBounds"/>
                    </mxGeometry>
                </mxCell>
                <mxCell id="207" value="Fixed cost associated with opening a plant at location \(j\)" style="shape=partialRectangle;html=1;whiteSpace=wrap;connectable=0;fillColor=none;top=0;left=0;bottom=0;right=0;align=left;spacingLeft=6;overflow=hidden;" vertex="1" parent="205">
                    <mxGeometry x="60" width="210" height="50" as="geometry">
                        <mxRectangle width="210" height="50" as="alternateBounds"/>
                    </mxGeometry>
                </mxCell>
                <mxCell id="208" value="" style="shape=tableRow;horizontal=0;startSize=0;swimlaneHead=0;swimlaneBody=0;top=0;left=0;bottom=0;right=0;collapsible=0;dropTarget=0;fillColor=none;points=[[0,0.5],[1,0.5]];portConstraint=eastwest;" vertex="1" parent="204">
                    <mxGeometry y="80" width="270" height="50" as="geometry"/>
                </mxCell>
                <mxCell id="209" value="\(c_{ij}\)" style="shape=partialRectangle;html=1;whiteSpace=wrap;connectable=0;fillColor=none;top=0;left=0;bottom=0;right=0;overflow=hidden;" vertex="1" parent="208">
                    <mxGeometry width="60" height="50" as="geometry">
                        <mxRectangle width="60" height="50" as="alternateBounds"/>
                    </mxGeometry>
                </mxCell>
                <mxCell id="210" value="Cost of transporting manure from farm \(i\) to plant \(j\)" style="shape=partialRectangle;html=1;whiteSpace=wrap;connectable=0;fillColor=none;top=0;left=0;bottom=0;right=0;align=left;spacingLeft=6;overflow=hidden;" vertex="1" parent="208">
                    <mxGeometry x="60" width="210" height="50" as="geometry">
                        <mxRectangle width="210" height="50" as="alternateBounds"/>
                    </mxGeometry>
                </mxCell>
                <mxCell id="214" style="shape=tableRow;horizontal=0;startSize=0;swimlaneHead=0;swimlaneBody=0;top=0;left=0;bottom=0;right=0;collapsible=0;dropTarget=0;fillColor=none;points=[[0,0.5],[1,0.5]];portConstraint=eastwest;" vertex="1" parent="204">
                    <mxGeometry y="130" width="270" height="50" as="geometry"/>
                </mxCell>
                <mxCell id="215" value="\(p_{i}\)" style="shape=partialRectangle;html=1;whiteSpace=wrap;connectable=0;fillColor=none;top=0;left=0;bottom=0;right=0;overflow=hidden;" vertex="1" parent="214">
                    <mxGeometry width="60" height="50" as="geometry">
                        <mxRectangle width="60" height="50" as="alternateBounds"/>
                    </mxGeometry>
                </mxCell>
                <mxCell id="216" value="Manure produced by farm \(i\)" style="shape=partialRectangle;html=1;whiteSpace=wrap;connectable=0;fillColor=none;top=0;left=0;bottom=0;right=0;align=left;spacingLeft=6;overflow=hidden;" vertex="1" parent="214">
                    <mxGeometry x="60" width="210" height="50" as="geometry">
                        <mxRectangle width="210" height="50" as="alternateBounds"/>
                    </mxGeometry>
                </mxCell>
                <mxCell id="217" value="" style="shape=tableRow;horizontal=0;startSize=0;swimlaneHead=0;swimlaneBody=0;top=0;left=0;bottom=0;right=0;collapsible=0;dropTarget=0;fillColor=none;points=[[0,0.5],[1,0.5]];portConstraint=eastwest;" vertex="1" parent="204">
                    <mxGeometry y="180" width="270" height="50" as="geometry"/>
                </mxCell>
                <mxCell id="218" value="\(M_{j}\)" style="shape=partialRectangle;html=1;whiteSpace=wrap;connectable=0;fillColor=none;top=0;left=0;bottom=0;right=0;overflow=hidden;" vertex="1" parent="217">
                    <mxGeometry width="60" height="50" as="geometry">
                        <mxRectangle width="60" height="50" as="alternateBounds"/>
                    </mxGeometry>
                </mxCell>
                <mxCell id="219" value="Maximum capacity of the plant at location \(j\)" style="shape=partialRectangle;html=1;whiteSpace=wrap;connectable=0;fillColor=none;top=0;left=0;bottom=0;right=0;align=left;spacingLeft=6;overflow=hidden;" vertex="1" parent="217">
                    <mxGeometry x="60" width="210" height="50" as="geometry">
                        <mxRectangle width="210" height="50" as="alternateBounds"/>
                    </mxGeometry>
                </mxCell>
                <mxCell id="220" style="shape=tableRow;horizontal=0;startSize=0;swimlaneHead=0;swimlaneBody=0;top=0;left=0;bottom=0;right=0;collapsible=0;dropTarget=0;fillColor=none;points=[[0,0.5],[1,0.5]];portConstraint=eastwest;" vertex="1" parent="204">
                    <mxGeometry y="230" width="270" height="50" as="geometry"/>
                </mxCell>
                <mxCell id="221" value="\(P\)" style="shape=partialRectangle;html=1;whiteSpace=wrap;connectable=0;fillColor=none;top=0;left=0;bottom=0;right=0;overflow=hidden;" vertex="1" parent="220">
                    <mxGeometry width="60" height="50" as="geometry">
                        <mxRectangle width="60" height="50" as="alternateBounds"/>
                    </mxGeometry>
                </mxCell>
                <mxCell id="222" value="Total manure production by all farms" style="shape=partialRectangle;html=1;whiteSpace=wrap;connectable=0;fillColor=none;top=0;left=0;bottom=0;right=0;align=left;spacingLeft=6;overflow=hidden;" vertex="1" parent="220">
                    <mxGeometry x="60" width="210" height="50" as="geometry">
                        <mxRectangle width="210" height="50" as="alternateBounds"/>
                    </mxGeometry>
                </mxCell>
                <mxCell id="223" style="shape=tableRow;horizontal=0;startSize=0;swimlaneHead=0;swimlaneBody=0;top=0;left=0;bottom=0;right=0;collapsible=0;dropTarget=0;fillColor=none;points=[[0,0.5],[1,0.5]];portConstraint=eastwest;" vertex="1" parent="204">
                    <mxGeometry y="280" width="270" height="50" as="geometry"/>
                </mxCell>
                <mxCell id="224" value="\(T\)" style="shape=partialRectangle;html=1;whiteSpace=wrap;connectable=0;fillColor=none;top=0;left=0;bottom=0;right=0;overflow=hidden;fontColor=#0000FF;" vertex="1" parent="223">
                    <mxGeometry width="60" height="50" as="geometry">
                        <mxRectangle width="60" height="50" as="alternateBounds"/>
                    </mxGeometry>
                </mxCell>
                <mxCell id="225" value="Target of manure utilization&amp;nbsp;" style="shape=partialRectangle;html=1;whiteSpace=wrap;connectable=0;fillColor=none;top=0;left=0;bottom=0;right=0;align=left;spacingLeft=6;overflow=hidden;fontColor=#0000FF;" vertex="1" parent="223">
                    <mxGeometry x="60" width="210" height="50" as="geometry">
                        <mxRectangle width="210" height="50" as="alternateBounds"/>
                    </mxGeometry>
                </mxCell>
                <mxCell id="226" value="&lt;font style=&quot;font-size: 12px;&quot;&gt;&lt;font style=&quot;font-size: 12px;&quot;&gt;&lt;span style=&quot;&quot;&gt;&lt;font style=&quot;font-size: 12px;&quot;&gt;\(\text{Farm}\): The set of farms, where \(n:=|\text{Farm}| \). \[ \text{Farm} = \{1, 2, \ldots, n\}\]&lt;/font&gt;&lt;/span&gt;&lt;/font&gt;&lt;span id=&quot;docs-internal-guid-d7d6a5e9-7fff-3747-1d99-b8a17d7eb3a2&quot;&gt;&lt;span style=&quot;font-family: Barlow, sans-serif; background-color: transparent; font-variant-numeric: normal; font-variant-east-asian: normal; vertical-align: baseline;&quot;&gt;&lt;br&gt;&lt;/span&gt;&lt;/span&gt;&lt;/font&gt;" style="text;html=1;strokeColor=none;fillColor=none;align=left;verticalAlign=middle;whiteSpace=wrap;rounded=0;" vertex="1" parent="1">
                    <mxGeometry x="1150" y="880" width="400" height="50" as="geometry"/>
                </mxCell>
                <mxCell id="228" value="&lt;font style=&quot;font-size: 12px;&quot;&gt;&lt;font style=&quot;font-size: 12px;&quot;&gt;&lt;span style=&quot;&quot;&gt;&lt;font style=&quot;font-size: 12px;&quot;&gt;\(\text{Plant}\): The set of potential plant locations, where \(m:=|\text{Plant}| \). \[ \text{Plant} = \{1, 2, \ldots, m\}\]&lt;/font&gt;&lt;/span&gt;&lt;/font&gt;&lt;span id=&quot;docs-internal-guid-d7d6a5e9-7fff-3747-1d99-b8a17d7eb3a2&quot;&gt;&lt;span style=&quot;font-family: Barlow, sans-serif; background-color: transparent; font-variant-numeric: normal; font-variant-east-asian: normal; vertical-align: baseline;&quot;&gt;&lt;br&gt;&lt;/span&gt;&lt;/span&gt;&lt;/font&gt;" style="text;html=1;strokeColor=none;fillColor=none;align=left;verticalAlign=middle;whiteSpace=wrap;rounded=0;" vertex="1" parent="1">
                    <mxGeometry x="1150" y="960" width="400" height="50" as="geometry"/>
                </mxCell>
                <mxCell id="231" value="&lt;span style=&quot;font-family: &amp;quot;Helvetica Neue&amp;quot;; font-size: 13px; text-align: start;&quot;&gt;&lt;br&gt;&lt;/span&gt;&lt;p style=&quot;border-color: var(--border-color); margin: 0px; font-variant-numeric: normal; font-variant-east-asian: normal; font-variant-alternates: normal; font-kerning: auto; font-optical-sizing: auto; font-feature-settings: normal; font-variation-settings: normal; font-stretch: normal; font-size: 13px; line-height: normal; font-family: &amp;quot;Helvetica Neue&amp;quot;; text-align: start;&quot; class=&quot;p1&quot;&gt;Each farm's manure production must be utilized or assigned to a facility (farm's production can't be left unused):&lt;/p&gt;&lt;p style=&quot;border-color: var(--border-color); margin: 0px; font-variant-numeric: normal; font-variant-east-asian: normal; font-variant-alternates: normal; font-kerning: auto; font-optical-sizing: auto; font-feature-settings: normal; font-variation-settings: normal; font-stretch: normal; font-size: 13px; line-height: normal; font-family: &amp;quot;Helvetica Neue&amp;quot;; text-align: start;&quot; class=&quot;p1&quot;&gt;&lt;br style=&quot;border-color: var(--border-color);&quot;&gt;&lt;/p&gt;&lt;span style=&quot;font-family: &amp;quot;Helvetica Neue&amp;quot;; font-size: 13px; text-align: start;&quot;&gt;\[\sum_{f \in \text{Facilities}} \text{service[(i, f)]} \leq \text{max_production[i]}, \forall i \in \text{Farms}\]&lt;br&gt;&lt;br&gt;&lt;/span&gt;&lt;p style=&quot;border-color: var(--border-color); font-variant-numeric: normal; font-variant-east-asian: normal; font-variant-alternates: normal; font-kerning: auto; font-optical-sizing: auto; font-feature-settings: normal; font-variation-settings: normal; font-stretch: normal; font-size: 13px; line-height: normal; font-family: &amp;quot;Helvetica Neue&amp;quot;; margin: 0px; text-align: start;&quot; class=&quot;p1&quot;&gt;The utilization of a facility f must be less than or equal to its maximum capacity, but only if the facility is open:&lt;/p&gt;&lt;p style=&quot;border-color: var(--border-color); font-variant-numeric: normal; font-variant-east-asian: normal; font-variant-alternates: normal; font-kerning: auto; font-optical-sizing: auto; font-feature-settings: normal; font-variation-settings: normal; font-stretch: normal; font-size: 13px; line-height: normal; font-family: &amp;quot;Helvetica Neue&amp;quot;; margin: 0px; text-align: start;&quot; class=&quot;p1&quot;&gt;\[\sum_{i \in \text{Farms}} \text{service[(i, f)]} \leq \text{max_capacity[f]} \cdot \text{open[f]}, \forall f \in \text{Facilities}\]&lt;/p&gt;&lt;p style=&quot;border-color: var(--border-color); font-variant-numeric: normal; font-variant-east-asian: normal; font-variant-alternates: normal; font-kerning: auto; font-optical-sizing: auto; font-feature-settings: normal; font-variation-settings: normal; font-stretch: normal; font-size: 13px; line-height: normal; font-family: &amp;quot;Helvetica Neue&amp;quot;; margin: 0px; text-align: start;&quot; class=&quot;p1&quot;&gt;&lt;br style=&quot;border-color: var(--border-color);&quot;&gt;&lt;/p&gt;&lt;p style=&quot;border-color: var(--border-color); font-variant-numeric: normal; font-variant-east-asian: normal; font-variant-alternates: normal; font-kerning: auto; font-optical-sizing: auto; font-feature-settings: normal; font-variation-settings: normal; font-stretch: normal; font-size: 13px; line-height: normal; font-family: &amp;quot;Helvetica Neue&amp;quot;; margin: 0px; text-align: start;&quot; class=&quot;p1&quot;&gt;The utilization of a facility f by farm i must be less than or equal to the farm's production, but only if the facility is open:&lt;/p&gt;&lt;p style=&quot;border-color: var(--border-color); font-variant-numeric: normal; font-variant-east-asian: normal; font-variant-alternates: normal; font-kerning: auto; font-optical-sizing: auto; font-feature-settings: normal; font-variation-settings: normal; font-stretch: normal; font-size: 13px; line-height: normal; font-family: &amp;quot;Helvetica Neue&amp;quot;; margin: 0px; text-align: start;&quot; class=&quot;p1&quot;&gt;\[\text{service[(i, f)]} \leq \text{max_production[i]} \cdot \text{open[f]}, \forall i \in \text{Farms}, \forall f \in \text{Facilities}\]&lt;/p&gt;&lt;p style=&quot;border-color: var(--border-color); font-variant-numeric: normal; font-variant-east-asian: normal; font-variant-alternates: normal; font-kerning: auto; font-optical-sizing: auto; font-feature-settings: normal; font-variation-settings: normal; font-stretch: normal; font-size: 13px; line-height: normal; font-family: &amp;quot;Helvetica Neue&amp;quot;; margin: 0px; text-align: start;&quot; class=&quot;p1&quot;&gt;&lt;br style=&quot;border-color: var(--border-color);&quot;&gt;&lt;/p&gt;&lt;p style=&quot;border-color: var(--border-color); font-variant-numeric: normal; font-variant-east-asian: normal; font-variant-alternates: normal; font-kerning: auto; font-optical-sizing: auto; font-feature-settings: normal; font-variation-settings: normal; font-stretch: normal; font-size: 13px; line-height: normal; font-family: &amp;quot;Helvetica Neue&amp;quot;; margin: 0px; text-align: start;&quot; class=&quot;p1&quot;&gt;The total utilization of manure must meet or exceed a specified goal:&lt;/p&gt;&lt;p style=&quot;border-color: var(--border-color); font-variant-numeric: normal; font-variant-east-asian: normal; font-variant-alternates: normal; font-kerning: auto; font-optical-sizing: auto; font-feature-settings: normal; font-variation-settings: normal; font-stretch: normal; font-size: 13px; line-height: normal; font-family: &amp;quot;Helvetica Neue&amp;quot;; margin: 0px; text-align: start;&quot; class=&quot;p1&quot;&gt;\[\sum_{i \in \text{Farms}} \sum_{f \in \text{Facilities}} \text{service[(i, f)]} \geq \text{manure_utilization_goal} \cdot \text{total_manure_production}\]&lt;/p&gt;" style="text;html=1;strokeColor=none;fillColor=none;align=center;verticalAlign=middle;whiteSpace=wrap;rounded=0;strokeWidth=4;" vertex="1" parent="1">
                    <mxGeometry x="120" y="1270" width="470" height="430" as="geometry"/>
                </mxCell>
                <mxCell id="232" value="1. Policy formulation" style="text;html=1;align=center;verticalAlign=middle;whiteSpace=wrap;rounded=1;strokeColor=default;spacingLeft=2;spacingRight=2;fillColor=default;strokeWidth=2;arcSize=12;" vertex="1" parent="1">
                    <mxGeometry x="1260" y="120" width="140" height="70" as="geometry"/>
                </mxCell>
                <mxCell id="233" value="2. Spatial preference formulation&amp;nbsp;" style="text;html=1;align=center;verticalAlign=middle;whiteSpace=wrap;rounded=1;strokeColor=default;spacingLeft=2;spacingRight=2;fillColor=default;strokeWidth=2;arcSize=12;" vertex="1" parent="1">
                    <mxGeometry x="1260" y="200" width="140" height="70" as="geometry"/>
                </mxCell>
                <mxCell id="234" value="Define Search Space" style="text;html=1;align=center;verticalAlign=middle;whiteSpace=wrap;rounded=0;strokeColor=none;spacingLeft=2;spacingRight=2;fontStyle=1" vertex="1" parent="1">
                    <mxGeometry x="1080" y="160" width="140" height="70" as="geometry"/>
                </mxCell>
                <mxCell id="235" style="edgeStyle=orthogonalEdgeStyle;html=1;strokeColor=#525252;strokeWidth=1;endArrow=blockThin;endFill=1;rounded=1;" edge="1" parent="1" source="232" target="240">
                    <mxGeometry relative="1" as="geometry">
                        <mxPoint x="1629.9999999999998" y="155" as="sourcePoint"/>
                        <Array as="points">
                            <mxPoint x="1430" y="155"/>
                            <mxPoint x="1430" y="195"/>
                        </Array>
                    </mxGeometry>
                </mxCell>
                <mxCell id="236" style="edgeStyle=orthogonalEdgeStyle;html=1;strokeColor=#525252;strokeWidth=1;endArrow=blockThin;endFill=1;rounded=1;" edge="1" parent="1" source="233" target="240">
                    <mxGeometry relative="1" as="geometry">
                        <mxPoint x="1629.9999999999998" y="235" as="sourcePoint"/>
                        <Array as="points">
                            <mxPoint x="1430" y="235"/>
                            <mxPoint x="1430" y="195"/>
                        </Array>
                    </mxGeometry>
                </mxCell>
                <mxCell id="237" style="edgeStyle=orthogonalEdgeStyle;rounded=0;html=1;strokeColor=#525252;strokeWidth=1;endArrow=blockThin;endFill=1;elbow=vertical;" edge="1" parent="1" source="238" target="241">
                    <mxGeometry relative="1" as="geometry"/>
                </mxCell>
                <mxCell id="238" value="3. Spatial optimization" style="text;html=1;align=center;verticalAlign=middle;whiteSpace=wrap;rounded=1;strokeColor=default;spacingLeft=2;spacingRight=2;fillColor=default;strokeWidth=2;arcSize=12;" vertex="1" parent="1">
                    <mxGeometry x="1730" y="340" width="140" height="70" as="geometry"/>
                </mxCell>
                <mxCell id="239" style="edgeStyle=none;rounded=1;html=1;endArrow=blockThin;endFill=1;" edge="1" parent="1" source="240" target="250">
                    <mxGeometry relative="1" as="geometry">
                        <mxPoint x="1830" y="275" as="sourcePoint"/>
                    </mxGeometry>
                </mxCell>
                <mxCell id="240" value="Conditional statement" style="text;html=1;align=center;verticalAlign=middle;whiteSpace=wrap;rounded=1;strokeColor=default;spacingLeft=2;spacingRight=2;fillColor=default;strokeWidth=2;arcSize=12;" vertex="1" parent="1">
                    <mxGeometry x="1470" y="160" width="140" height="70" as="geometry"/>
                </mxCell>
                <mxCell id="241" value="What are the implications of the policy? (Scoring)" style="text;html=1;align=center;verticalAlign=middle;whiteSpace=wrap;rounded=1;strokeColor=default;spacingLeft=2;spacingRight=2;fillColor=default;strokeWidth=2;arcSize=12;" vertex="1" parent="1">
                    <mxGeometry x="1930" y="340" width="180" height="70" as="geometry"/>
                </mxCell>
                <mxCell id="242" value="" style="endArrow=none;html=1;strokeWidth=4;strokeColor=#525252;" edge="1" parent="1">
                    <mxGeometry width="50" height="50" relative="1" as="geometry">
                        <mxPoint x="1230" y="270" as="sourcePoint"/>
                        <mxPoint x="1230" y="120" as="targetPoint"/>
                    </mxGeometry>
                </mxCell>
                <mxCell id="243" value="" style="endArrow=none;html=1;strokeWidth=4;strokeColor=#525252;" edge="1" parent="1">
                    <mxGeometry width="50" height="50" relative="1" as="geometry">
                        <mxPoint x="1260" y="100" as="sourcePoint"/>
                        <mxPoint x="1400" y="100" as="targetPoint"/>
                    </mxGeometry>
                </mxCell>
                <mxCell id="244" value="User Action" style="text;html=1;align=center;verticalAlign=middle;whiteSpace=wrap;rounded=0;strokeColor=none;spacingLeft=2;spacingRight=2;fontStyle=1" vertex="1" parent="1">
                    <mxGeometry x="1260" y="80" width="140" height="20" as="geometry"/>
                </mxCell>
                <mxCell id="245" value="" style="endArrow=none;html=1;strokeWidth=4;strokeColor=#525252;" edge="1" parent="1">
                    <mxGeometry width="50" height="50" relative="1" as="geometry">
                        <mxPoint x="1470" y="100" as="sourcePoint"/>
                        <mxPoint x="1840" y="100" as="targetPoint"/>
                    </mxGeometry>
                </mxCell>
                <mxCell id="246" value="MCDA" style="text;html=1;align=center;verticalAlign=middle;whiteSpace=wrap;rounded=0;strokeColor=none;spacingLeft=2;spacingRight=2;fontStyle=1" vertex="1" parent="1">
                    <mxGeometry x="1510" y="80" width="280" height="20" as="geometry"/>
                </mxCell>
                <mxCell id="247" style="rounded=1;html=1;endArrow=blockThin;endFill=1;" edge="1" parent="1" source="248" target="238">
                    <mxGeometry relative="1" as="geometry"/>
                </mxCell>
                <mxCell id="248" value="&lt;span style=&quot;background-color: rgb(255, 255, 255);&quot;&gt;\(\text{Plant}\)&lt;/span&gt;" style="shape=parallelogram;html=1;strokeWidth=2;perimeter=parallelogramPerimeter;whiteSpace=wrap;rounded=1;arcSize=12;size=0.23;" vertex="1" parent="1">
                    <mxGeometry x="1750" y="160" width="100" height="70" as="geometry"/>
                </mxCell>
                <mxCell id="249" value="" style="edgeStyle=none;rounded=1;html=1;endArrow=blockThin;endFill=1;" edge="1" parent="1" source="250" target="248">
                    <mxGeometry relative="1" as="geometry"/>
                </mxCell>
                <mxCell id="250" value="Map/Data" style="strokeWidth=2;html=1;shape=mxgraph.flowchart.database;whiteSpace=wrap;spacingTop=4;" vertex="1" parent="1">
                    <mxGeometry x="1660" y="160" width="60" height="70" as="geometry"/>
                </mxCell>
                <mxCell id="251" value="&lt;span style=&quot;background-color: rgb(255, 255, 255);&quot;&gt;\(T, m'\)&lt;/span&gt;" style="shape=parallelogram;html=1;strokeWidth=2;perimeter=parallelogramPerimeter;whiteSpace=wrap;rounded=1;arcSize=12;size=0.23;" vertex="1" parent="1">
                    <mxGeometry x="1490" y="340" width="100" height="70" as="geometry"/>
                </mxCell>
                <mxCell id="253" value="How about the number of plants that can be built according to budget? (\(m'\))" style="text;html=1;strokeColor=none;fillColor=none;align=center;verticalAlign=middle;whiteSpace=wrap;rounded=0;strokeWidth=4;fontColor=#0000FF;" vertex="1" parent="1">
                    <mxGeometry x="2260" y="1230" width="160" height="80" as="geometry"/>
                </mxCell>
                <mxCell id="255" style="edgeStyle=none;rounded=1;html=1;endArrow=blockThin;endFill=1;" edge="1" parent="1" source="240" target="251">
                    <mxGeometry relative="1" as="geometry">
                        <mxPoint x="1840" y="285" as="sourcePoint"/>
                        <mxPoint x="1880" y="285" as="targetPoint"/>
                    </mxGeometry>
                </mxCell>
                <mxCell id="256" style="edgeStyle=none;rounded=1;html=1;endArrow=blockThin;endFill=1;" edge="1" parent="1" source="251" target="238">
                    <mxGeometry relative="1" as="geometry">
                        <mxPoint x="1620" y="205" as="sourcePoint"/>
                        <mxPoint x="1670" y="205" as="targetPoint"/>
                    </mxGeometry>
                </mxCell>
                <mxCell id="257" value="&lt;span style=&quot;background-color: rgb(255, 255, 255);&quot;&gt;Optimal solution&lt;/span&gt;" style="shape=parallelogram;html=1;strokeWidth=2;perimeter=parallelogramPerimeter;whiteSpace=wrap;rounded=1;arcSize=12;size=0.23;" vertex="1" parent="1">
                    <mxGeometry x="1940" y="240" width="100" height="70" as="geometry"/>
                </mxCell>
            </root>
        </mxGraphModel>
    </diagram>
</mxfile>